HIERARCHY
ROOT joint_Root
{
	OFFSET 0.0 0.0 0.0
	CHANNELS 6 Xposition Yposition Zposition Zrotation Xrotation Yrotation 
	JOINT Hips
	{
		OFFSET 4.5925 91.4895 -427.239
		CHANNELS 6 Xposition Yposition Zposition Zrotation Xrotation Yrotation 
		JOINT Spine
		{
			OFFSET 15.7357 0.0 0.0
			CHANNELS 6 Xposition Yposition Zposition Zrotation Xrotation Yrotation 
			JOINT Chest
			{
				OFFSET 8.98455 -0.406207 0.0
				CHANNELS 6 Xposition Yposition Zposition Zrotation Xrotation Yrotation 
				JOINT Neck
				{
					OFFSET 16.3773 0.0 0.0
					CHANNELS 6 Xposition Yposition Zposition Zrotation Xrotation Yrotation 
					JOINT Head
					{
						OFFSET 6.45672 0.0 0.0
						CHANNELS 6 Xposition Yposition Zposition Zrotation Xrotation Yrotation 
						End Site
						{
							OFFSET 0.0 0.0 0.0
						}
					}
				}
				JOINT Shoulder_L
				{
					OFFSET 12.9942 -0.242716 4.98039
					CHANNELS 6 Xposition Yposition Zposition Zrotation Xrotation Yrotation 
					JOINT UpperArm_L
					{
						OFFSET 5.34809 0.0 0.0
						CHANNELS 6 Xposition Yposition Zposition Zrotation Xrotation Yrotation 
						JOINT LowerArm_L
						{
							OFFSET 24.3286 1.87007e-05 0.0
							CHANNELS 6 Xposition Yposition Zposition Zrotation Xrotation Yrotation 
							JOINT Hand_L
							{
								OFFSET 22.2916 0.0 0.0
								CHANNELS 6 Xposition Yposition Zposition Zrotation Xrotation Yrotation 
								End Site
								{
									OFFSET 0.0 0.0 0.0
								}
							}
						}
					}
				}
				JOINT Shoulder_R
				{
					OFFSET 12.9945 -0.242716 -4.98039
					CHANNELS 6 Xposition Yposition Zposition Zrotation Xrotation Yrotation 
					JOINT UpperArm_R
					{
						OFFSET -5.34813 0.0 0.0
						CHANNELS 6 Xposition Yposition Zposition Zrotation Xrotation Yrotation 
						JOINT LowerArm_R
						{
							OFFSET -24.3289 0.000322201 0.0
							CHANNELS 6 Xposition Yposition Zposition Zrotation Xrotation Yrotation 
							JOINT Hand_R
							{
								OFFSET -22.2915 -0.000108084 0.0
								CHANNELS 6 Xposition Yposition Zposition Zrotation Xrotation Yrotation 
								End Site
								{
									OFFSET 0.0 0.0 0.0
								}
							}
						}
					}
				}
			}
		}
		JOINT UpperLeg_L
		{
			OFFSET -2.19248 -6.46944 0.0
			CHANNELS 6 Xposition Yposition Zposition Zrotation Xrotation Yrotation 
			JOINT LowerLeg_L
			{
				OFFSET 39.0811 0.0 -1.23785e-05
				CHANNELS 6 Xposition Yposition Zposition Zrotation Xrotation Yrotation 
				JOINT Foot_L
				{
					OFFSET 40.9854 0.0 -1.26872e-05
					CHANNELS 6 Xposition Yposition Zposition Zrotation Xrotation Yrotation 
					JOINT Toes_L
					{
						OFFSET 11.7543 0.0 0.0
						CHANNELS 6 Xposition Yposition Zposition Zrotation Xrotation Yrotation 
						End Site
						{
							OFFSET 0.0 0.0 0.0
						}
					}
				}
			}
		}
		JOINT UpperLeg_R
		{
			OFFSET -2.19251 6.46944 0.0
			CHANNELS 6 Xposition Yposition Zposition Zrotation Xrotation Yrotation 
			JOINT LowerLeg_R
			{
				OFFSET -39.0811 -0.00228153 -0.0401928
				CHANNELS 6 Xposition Yposition Zposition Zrotation Xrotation Yrotation 
				JOINT Foot_R
				{
					OFFSET -40.9854 0.0 0.0
					CHANNELS 6 Xposition Yposition Zposition Zrotation Xrotation Yrotation 
					JOINT Toes_R
					{
						OFFSET -11.7543 0.0 0.0
						CHANNELS 6 Xposition Yposition Zposition Zrotation Xrotation Yrotation 
						End Site
						{
							OFFSET 0.0 0.0 0.0
						}
					}
				}
			}
		}
	}
}
MOTION
Frames:	6
Frame Time:	0.0333333
0.000000 0.000000 0.000000 0.000000 0.000000 -0.000000 -1.181070 80.924600 -3.312030 88.827500 -4.338830 6.992440 15.735700 0.000005 -0.000001 91.197500 80.250900 -91.042900 8.984550 -0.406207 -0.000000 11.727700 0.409425 0.267165 16.377300 -0.000001 -0.000001 -3.967090 -3.906380 1.055470 6.456720 -0.000001 -0.000000 -6.500700 -6.004140 6.971860 12.994200 -0.242716 4.980390 -91.070600 4.173840 -75.599900 5.348090 -0.000007 -0.000001 -66.739700 13.139400 -17.780200 24.328600 0.000019 0.000005 5.935850 14.908700 -22.004800 22.291600 -0.000001 0.000005 13.053700 5.200250 2.705670 12.994500 -0.242716 -4.980390 88.941500 8.409070 -82.799500 -5.348130 -0.000001 -0.000004 -63.181000 24.314600 -11.456900 -24.328900 0.000322 -0.000009 -3.535610 -6.694520 -27.916300 -22.291500 -0.000108 -0.000004 21.938200 5.498050 -6.462550 -2.192480 -6.469440 -0.000000 -173.264000 -13.771800 -22.233300 39.081100 -0.000007 -0.000012 -0.650361 0.288861 66.052800 40.985400 -0.000006 -0.000013 0.944750 5.451820 -86.266400 11.754300 -0.000000 0.000003 -0.000592 -0.004584 -16.743900 -2.192510 6.469440 -0.000001 178.375000 13.246100 157.459000 -39.081100 -0.002282 -0.040193 0.098226 -0.041852 66.240400 -40.985400 0.000008 0.000006 7.717050 4.899020 -86.385000 -11.754300 -0.000006 -0.000006 -1.432460 -1.819090 -16.450800
0.000000 0.000000 0.000000 0.000000 0.000000 -0.000000 -0.620722 82.635700 -2.042430 89.676000 -4.917080 7.270560 15.735700 0.000005 -0.000001 91.778800 81.073400 -90.724700 8.984550 -0.406207 -0.000000 10.074600 0.571857 2.056380 16.377300 -0.000001 -0.000001 -2.710140 -3.574540 1.302390 6.456720 -0.000001 -0.000000 -5.373960 -5.158090 5.129830 12.994200 -0.242716 4.980390 -90.977800 3.552830 -74.599700 5.348090 -0.000007 -0.000001 -64.610300 3.675140 -18.716400 24.328600 0.000019 0.000005 6.497110 16.415000 -21.949700 22.291600 -0.000001 0.000005 8.607510 5.221380 2.176530 12.994500 -0.242716 -4.980390 88.772300 8.463290 -81.715000 -5.348130 -0.000001 -0.000004 -63.502900 22.033200 -8.969670 -24.328900 0.000322 -0.000009 -3.604310 -8.056220 -24.197400 -22.291500 -0.000108 -0.000004 23.316200 5.470860 -5.402530 -2.192480 -6.469440 -0.000000 -174.366000 -14.323100 -18.300700 39.081100 -0.000007 -0.000012 -0.615683 0.342229 60.933800 40.985400 -0.000006 -0.000013 1.047870 5.186520 -84.877400 11.754300 -0.000000 0.000003 -0.000522 -0.004128 -16.728200 -2.192510 6.469440 -0.000001 176.784000 12.571500 160.896000 -39.081100 -0.002282 -0.040193 0.081110 -0.042036 61.654400 -40.985400 0.000008 0.000006 7.082660 5.588310 -84.898500 -11.754300 -0.000006 -0.000006 -1.449630 -1.840040 -16.492800
0.000000 0.000000 0.000000 0.000000 0.000000 -0.000000 -0.001271 85.177000 -0.666996 90.773700 -5.120110 7.380100 15.735700 0.000005 -0.000001 93.424600 82.122600 -91.363500 8.984550 -0.406207 -0.000000 7.947890 0.940431 4.052710 16.377300 -0.000001 -0.000001 -0.718249 -3.426590 1.327330 6.456720 -0.000001 -0.000000 -3.958690 -4.576830 3.220950 12.994200 -0.242716 4.980390 -90.591800 2.034000 -73.772000 5.348090 -0.000007 -0.000001 -56.165400 -1.025080 -23.995300 24.328600 0.000019 0.000005 5.093810 15.017500 -18.981100 22.291600 -0.000001 0.000005 11.103100 5.188850 2.998410 12.994500 -0.242716 -4.980390 88.665900 7.853590 -80.327300 -5.348130 -0.000001 -0.000004 -63.604100 18.573200 -5.014480 -24.328900 0.000322 -0.000009 -3.544020 -8.833380 -21.959000 -22.291500 -0.000108 -0.000004 22.229600 5.483080 -5.869060 -2.192480 -6.469440 -0.000000 -175.766000 -15.158000 -13.023100 39.081100 -0.000007 -0.000012 -0.490719 0.375063 52.610000 40.985400 -0.000006 -0.000013 1.305510 5.467510 -81.861500 11.754300 -0.000000 0.000003 -0.000401 -0.003315 -16.699800 -2.192510 6.469440 -0.000001 174.862000 12.441700 165.613000 -39.081100 -0.002282 -0.040193 0.062106 -0.042456 54.203800 -40.985400 0.000008 0.000006 6.345800 6.643330 -81.964300 -11.754300 -0.000006 -0.000006 -1.396220 -1.761630 -16.659100
0.000000 0.000000 0.000000 0.000000 0.000000 -0.000000 0.501417 87.750100 0.725427 91.524400 -4.954140 7.563230 15.735700 0.000005 -0.000001 96.122800 83.168300 -93.002900 8.984550 -0.406207 -0.000000 5.790270 1.400060 6.162080 16.377300 -0.000001 -0.000001 1.697200 -3.620570 1.408990 6.456720 -0.000001 -0.000000 -2.656680 -4.532000 1.622620 12.994200 -0.242716 4.980390 -89.963700 -0.122216 -73.417600 5.348090 -0.000007 -0.000001 -51.687800 -15.645300 -32.269700 24.328600 0.000019 0.000005 2.995580 10.793100 -15.609500 22.291600 -0.000001 0.000005 11.431200 5.131570 4.378500 12.994500 -0.242716 -4.980390 88.580900 7.015130 -78.533300 -5.348130 -0.000001 -0.000004 -62.393700 15.733600 -1.010420 -24.328900 0.000322 -0.000009 -3.062220 -8.163500 -20.636400 -22.291500 -0.000108 -0.000004 19.689800 5.480060 -5.749710 -2.192480 -6.469440 -0.000000 -176.444000 -16.412200 -6.863350 39.081100 -0.000007 -0.000012 -0.347187 0.375849 42.730600 40.985400 -0.000006 -0.000013 1.656260 6.803640 -78.017600 11.754300 -0.000000 0.000003 -0.000194 -0.001807 -16.645800 -2.192510 6.469440 -0.000001 173.196000 13.351100 171.087000 -39.081100 -0.002282 -0.040193 0.045728 -0.041719 45.508100 -40.985400 0.000008 0.000006 5.952510 8.174370 -78.141900 -11.754300 -0.000006 -0.000006 -1.365160 -1.701320 -17.127200
0.000000 0.000000 0.000000 0.000000 0.000000 -0.000000 0.838585 89.730000 1.699570 91.441800 -4.517130 6.884250 15.735700 0.000005 -0.000001 97.611400 84.306800 -93.395000 8.984550 -0.406207 -0.000000 3.485210 1.349310 8.382780 16.377300 -0.000001 -0.000001 3.581010 -3.933760 1.786420 6.456720 -0.000001 -0.000000 -2.174330 -4.475790 0.405675 12.994200 -0.242716 4.980390 -89.265500 -2.619170 -74.323800 5.348090 -0.000007 -0.000001 -44.147300 -29.354600 -39.845300 24.328600 0.000019 0.000005 1.301460 4.817560 -15.146300 22.291600 -0.000001 0.000005 12.455900 5.145070 4.059460 12.994500 -0.242716 -4.980390 88.605400 6.050230 -76.993700 -5.348130 -0.000001 -0.000004 -60.265900 14.071600 1.968940 -24.328900 0.000322 -0.000009 -2.533500 -7.171770 -19.507000 -22.291500 -0.000108 -0.000004 18.521800 5.473370 -5.496520 -2.192480 -6.469440 -0.000000 -176.735000 -17.866300 -3.264400 39.081100 -0.000007 -0.000012 0.018621 -0.026355 35.241700 40.985400 -0.000006 -0.000013 4.908710 7.850960 -74.245100 11.754300 -0.000000 0.000003 -1.419660 -1.808130 -16.319400 -2.192510 6.469440 -0.000001 172.599000 15.486000 175.156000 -39.081100 -0.002282 -0.040193 0.032377 -0.037936 37.483800 -40.985400 0.000008 0.000006 5.712180 10.134500 -74.149200 -11.754300 -0.000006 -0.000006 -1.583400 -1.961770 -17.591400
0.000000 0.000000 0.000000 0.000000 0.000000 -0.000000 1.204990 90.920400 2.255600 91.457100 -5.230320 5.465940 15.735700 0.000005 -0.000001 98.438900 85.235800 -93.542900 8.984550 -0.406207 -0.000000 1.629960 1.136130 9.767070 16.377300 -0.000001 -0.000001 4.403210 -3.795940 2.355500 6.456720 -0.000001 -0.000000 -2.777770 -4.189870 0.026820 12.994200 -0.242716 4.980390 -88.233400 -6.732250 -75.258800 5.348090 -0.000007 -0.000001 -31.090300 -41.767500 -40.803200 24.328600 0.000019 0.000005 -1.537080 -4.797580 -17.766200 22.291600 -0.000001 0.000005 11.331000 5.222600 2.141960 12.994500 -0.242716 -4.980390 88.597100 5.840620 -76.468700 -5.348130 -0.000001 -0.000004 -57.097900 12.611300 3.550770 -24.328900 0.000322 -0.000009 -2.173500 -6.429820 -18.713600 -22.291500 -0.000108 -0.000004 18.601100 5.464920 -5.181600 -2.192480 -6.469440 -0.000000 -176.746000 -20.095400 -2.234240 39.081100 -0.000007 -0.000012 0.014971 -0.024868 31.046900 40.985400 -0.000006 -0.000013 4.252800 10.111200 -71.023500 11.754300 -0.000000 0.000003 -0.064771 -0.066530 -15.985100 -2.192510 6.469440 -0.000001 172.214000 17.557600 176.845000 -39.081100 -0.002282 -0.040193 0.024521 -0.034274 31.765400 -40.985400 0.000008 0.000006 5.771510 12.738500 -71.424000 -11.754300 -0.000006 -0.000006 -1.607470 -1.982510 -17.791100
